<?xml version="1.0"?>
<!DOCTYPE svg PUBLIC "-//W3C//DTD SVG 1.1//EN" "http://www.w3.org/Graphics/SVG/1.1/DTD/svg11.dtd">
<svg width="512px" height="512px" viewBox="0 0 512 512" xmlns="http://www.w3.org/2000/svg" version="1.1">
<desc>UV-Map from Object: floor_tile. Exported from Blender3D with UV Exportscript</desc>
<rect x="0" y="0" width="512" height="512" fill="none" stroke="blue" stroke-width="1px" />
<g style="fill:none; stroke:black; stroke-width:1px;">
<polygon points="196.020,499.345 216.772,499.345 216.772,478.593 196.020,478.593 " />
<polygon points="319.700,39.114 159.850,39.114 159.850,198.964 319.700,198.964 " />
<polygon points="196.020,499.345 216.772,499.345 216.772,478.593 196.020,478.593 " />
<polygon points="196.020,499.345 216.772,499.345 216.772,478.593 196.020,478.593 " />
<polygon points="196.020,499.345 216.772,499.345 216.772,478.593 196.020,478.593 " />
<polygon points="196.020,499.345 216.772,499.345 216.772,478.593 196.020,478.593 " />
<polygon points="319.700,39.114 159.850,39.114 159.850,198.964 319.700,198.964 " />
<polygon points="319.700,39.114 159.850,39.114 159.850,198.964 319.700,198.964 " />
<polygon points="196.020,499.345 216.772,499.345 216.772,478.593 196.020,478.593 " />
<polygon points="196.020,499.345 216.772,499.345 216.772,478.593 196.020,478.593 " />
<polygon points="319.700,39.114 159.850,39.114 159.850,198.964 319.700,198.964 " />
<polygon points="10.159,504.364 10.085,507.067 30.691,507.067 30.765,504.364 " />
<polygon points="319.700,39.114 159.850,39.114 159.850,198.964 319.700,198.964 " />
<polygon points="196.020,499.345 216.772,499.345 216.772,478.593 196.020,478.593 " />
<polygon points="196.020,499.345 216.772,499.345 216.772,478.593 196.020,478.593 " />
<polygon points="319.700,39.114 159.850,39.114 159.850,198.964 319.700,198.964 " />
<polygon points="196.020,499.345 216.772,499.345 216.772,478.593 196.020,478.593 " />
<polygon points="196.020,499.345 216.772,499.345 216.772,478.593 196.020,478.593 " />
<polygon points="319.700,39.114 159.850,39.114 159.850,198.964 319.700,198.964 " />
<polygon points="319.700,39.114 159.850,39.114 159.850,198.964 319.700,198.964 " />
<polygon points="196.020,499.345 216.772,499.345 216.772,478.593 196.020,478.593 " />
<polygon points="196.020,499.345 216.772,499.345 216.772,478.593 196.020,478.593 " />
<polygon points="319.700,39.114 159.850,39.114 159.850,198.964 319.700,198.964 " />
<polygon points="319.700,39.114 159.850,39.114 159.850,198.964 319.700,198.964 " />
<polygon points="196.020,499.345 216.772,499.345 216.772,478.593 196.020,478.593 " />
<polygon points="10.159,504.364 10.085,507.067 30.691,507.067 30.765,504.364 " />
<polygon points="196.020,499.345 216.772,499.345 216.772,478.593 196.020,478.593 " />
<polygon points="10.159,504.364 10.085,507.067 30.691,507.067 30.765,504.364 " />
<polygon points="319.700,39.114 159.850,39.114 159.850,198.964 319.700,198.964 " />
<polygon points="319.700,39.114 159.850,39.114 159.850,198.964 319.700,198.964 " />
<polygon points="196.020,499.345 216.772,499.345 216.772,478.593 196.020,478.593 " />
<polygon points="196.020,499.345 216.772,499.345 216.772,478.593 196.020,478.593 " />
<polygon points="319.700,39.114 159.850,39.114 159.850,198.964 319.700,198.964 " />
<polygon points="319.700,39.114 159.850,39.114 159.850,198.964 319.700,198.964 " />
<polygon points="196.020,499.345 216.772,499.345 216.772,478.593 196.020,478.593 " />
<polygon points="196.020,499.345 216.772,499.345 216.772,478.593 196.020,478.593 " />
<polygon points="319.700,39.114 159.850,39.114 159.850,198.964 319.700,198.964 " />
<polygon points="196.020,499.345 216.772,499.345 216.772,478.593 196.020,478.593 " />
<polygon points="196.020,499.345 216.772,499.345 216.772,478.593 196.020,478.593 " />
<polygon points="319.700,39.114 159.850,39.114 159.850,198.964 319.700,198.964 " />
<polygon points="10.159,504.364 10.085,507.067 30.691,507.067 30.765,504.364 " />
<polygon points="319.700,39.114 159.850,39.114 159.850,198.964 319.700,198.964 " />
<polygon points="196.020,499.345 216.772,499.345 216.772,478.593 196.020,478.593 " />
<polygon points="319.700,39.114 159.850,39.114 159.850,198.964 319.700,198.964 " />
<polygon points="196.020,499.345 216.772,499.345 216.772,478.593 196.020,478.593 " />
<polygon points="319.700,39.114 159.850,39.114 159.850,198.964 319.700,198.964 " />
<polygon points="196.020,499.345 216.772,499.345 216.772,478.593 196.020,478.593 " />
<polygon points="319.700,39.114 159.850,39.114 159.850,198.964 319.700,198.964 " />
<polygon points="196.020,499.345 216.772,499.345 216.772,478.593 196.020,478.593 " />
<polygon points="319.700,39.114 159.850,39.114 159.850,198.964 319.700,198.964 " />
<polygon points="196.020,499.345 216.772,499.345 216.772,478.593 196.020,478.593 " />
<polygon points="319.700,39.114 159.850,39.114 159.850,198.964 319.700,198.964 " />
<polygon points="196.020,499.345 216.772,499.345 216.772,478.593 196.020,478.593 " />
<polygon points="319.700,39.114 159.850,39.114 159.850,198.964 319.700,198.964 " />
<polygon points="196.020,499.345 216.772,499.345 216.772,478.593 196.020,478.593 " />
<polygon points="196.020,499.345 216.772,499.345 216.772,478.593 196.020,478.593 " />
<polygon points="319.700,39.114 159.850,39.114 159.850,198.964 319.700,198.964 " />
<polygon points="196.020,499.345 216.772,499.345 216.772,478.593 196.020,478.593 " />
<polygon points="319.700,39.114 159.850,39.114 159.850,198.964 319.700,198.964 " />
<polygon points="196.020,499.345 216.772,499.345 216.772,478.593 196.020,478.593 " />
<polygon points="319.700,39.114 159.850,39.114 159.850,198.964 319.700,198.964 " />
<polygon points="196.020,499.345 216.772,499.345 216.772,478.593 196.020,478.593 " />
<polygon points="319.700,39.114 159.850,39.114 159.850,198.964 319.700,198.964 " />
<polygon points="196.020,499.345 216.772,499.345 216.772,478.593 196.020,478.593 " />
<polygon points="319.700,39.114 159.850,39.114 159.850,198.964 319.700,198.964 " />
<polygon points="196.020,499.345 216.772,499.345 216.772,478.593 196.020,478.593 " />
<polygon points="319.700,39.114 159.850,39.114 159.850,198.964 319.700,198.964 " />
<polygon points="196.020,499.345 216.772,499.345 216.772,478.593 196.020,478.593 " />
<polygon points="319.700,39.114 159.850,39.114 159.850,198.964 319.700,198.964 " />
<polygon points="196.020,499.345 216.772,499.345 216.772,478.593 196.020,478.593 " />
<polygon points="319.700,39.114 159.850,39.114 159.850,198.964 319.700,198.964 " />
<polygon points="196.020,499.345 216.772,499.345 216.772,478.593 196.020,478.593 " />
<polygon points="319.700,39.114 159.850,39.114 159.850,198.964 319.700,198.964 " />
<polygon points="10.159,504.364 10.085,507.067 30.691,507.067 30.765,504.364 " />
<polygon points="319.700,39.114 159.850,39.114 159.850,198.964 319.700,198.964 " />
<polygon points="196.020,499.345 216.772,499.345 216.772,478.593 196.020,478.593 " />
<polygon points="196.020,499.345 216.772,499.345 216.772,478.593 196.020,478.593 " />
<polygon points="319.700,39.114 159.850,39.114 159.850,198.964 319.700,198.964 " />
<polygon points="196.020,499.345 216.772,499.345 216.772,478.593 196.020,478.593 " />
<polygon points="196.020,499.345 216.772,499.345 216.772,478.593 196.020,478.593 " />
<polygon points="319.700,39.114 159.850,39.114 159.850,198.964 319.700,198.964 " />
<polygon points="319.700,39.114 159.850,39.114 159.850,198.964 319.700,198.964 " />
<polygon points="196.020,499.345 216.772,499.345 216.772,478.593 196.020,478.593 " />
<polygon points="196.020,499.345 216.772,499.345 216.772,478.593 196.020,478.593 " />
<polygon points="319.700,39.114 159.850,39.114 159.850,198.964 319.700,198.964 " />
<polygon points="319.700,39.114 159.850,39.114 159.850,198.964 319.700,198.964 " />
<polygon points="10.159,504.364 10.085,507.067 30.691,507.067 30.765,504.364 " />
<polygon points="196.020,499.345 216.772,499.345 216.772,478.593 196.020,478.593 " />
<polygon points="196.020,499.345 216.772,499.345 216.772,478.593 196.020,478.593 " />
<polygon points="10.159,504.364 10.085,507.067 30.691,507.067 30.765,504.364 " />
<polygon points="319.700,39.114 159.850,39.114 159.850,198.964 319.700,198.964 " />
<polygon points="319.700,39.114 159.850,39.114 159.850,198.964 319.700,198.964 " />
<polygon points="196.020,499.345 216.772,499.345 216.772,478.593 196.020,478.593 " />
<polygon points="196.020,499.345 216.772,499.345 216.772,478.593 196.020,478.593 " />
<polygon points="319.700,39.114 159.850,39.114 159.850,198.964 319.700,198.964 " />
<polygon points="319.700,39.114 159.850,39.114 159.850,198.964 319.700,198.964 " />
<polygon points="196.020,499.345 216.772,499.345 216.772,478.593 196.020,478.593 " />
<polygon points="196.020,499.345 216.772,499.345 216.772,478.593 196.020,478.593 " />
<polygon points="319.700,39.114 159.850,39.114 159.850,198.964 319.700,198.964 " />
<polygon points="196.020,499.345 216.772,499.345 216.772,478.593 196.020,478.593 " />
<polygon points="196.020,499.345 216.772,499.345 216.772,478.593 196.020,478.593 " />
<polygon points="319.700,39.114 159.850,39.114 159.850,198.964 319.700,198.964 " />
<polygon points="10.159,504.364 10.085,507.067 30.691,507.067 30.765,504.364 " />
<polygon points="319.700,39.114 159.850,39.114 159.850,198.964 319.700,198.964 " />
<polygon points="196.020,499.345 216.772,499.345 216.772,478.593 196.020,478.593 " />
<polygon points="319.700,39.114 159.850,39.114 159.850,198.964 319.700,198.964 " />
<polygon points="196.020,499.345 216.772,499.345 216.772,478.593 196.020,478.593 " />
<polygon points="319.700,39.114 159.850,39.114 159.850,198.964 319.700,198.964 " />
<polygon points="196.020,499.345 216.772,499.345 216.772,478.593 196.020,478.593 " />
<polygon points="319.700,39.114 159.850,39.114 159.850,198.964 319.700,198.964 " />
<polygon points="196.020,499.345 216.772,499.345 216.772,478.593 196.020,478.593 " />
<polygon points="319.700,39.114 159.850,39.114 159.850,198.964 319.700,198.964 " />
<polygon points="196.020,499.345 216.772,499.345 216.772,478.593 196.020,478.593 " />
<polygon points="319.700,39.114 159.850,39.114 159.850,198.964 319.700,198.964 " />
<polygon points="196.020,499.345 216.772,499.345 216.772,478.593 196.020,478.593 " />
<polygon points="319.700,39.114 159.850,39.114 159.850,198.964 319.700,198.964 " />
<polygon points="196.020,499.345 216.772,499.345 216.772,478.593 196.020,478.593 " />
<polygon points="319.700,39.114 159.850,39.114 159.850,198.964 319.700,198.964 " />
<polygon points="196.020,499.345 216.772,499.345 216.772,478.593 196.020,478.593 " />
<polygon points="319.700,39.114 159.850,39.114 159.850,198.964 319.700,198.964 " />
<polygon points="196.020,499.345 216.772,499.345 216.772,478.593 196.020,478.593 " />
<polygon points="196.020,499.345 216.772,499.345 216.772,478.593 196.020,478.593 " />
<polygon points="319.700,39.114 159.850,39.114 159.850,198.964 319.700,198.964 " />
<polygon points="196.020,499.345 216.772,499.345 216.772,478.593 196.020,478.593 " />
<polygon points="319.700,39.114 159.850,39.114 159.850,198.964 319.700,198.964 " />
<polygon points="196.020,499.345 216.772,499.345 216.772,478.593 196.020,478.593 " />
<polygon points="319.700,39.114 159.850,39.114 159.850,198.964 319.700,198.964 " />
<polygon points="196.020,499.345 216.772,499.345 216.772,478.593 196.020,478.593 " />
<polygon points="319.700,39.114 159.850,39.114 159.850,198.964 319.700,198.964 " />
<polygon points="196.020,499.345 216.772,499.345 216.772,478.593 196.020,478.593 " />
<polygon points="319.700,39.114 159.850,39.114 159.850,198.964 319.700,198.964 " />
<polygon points="196.020,499.345 216.772,499.345 216.772,478.593 196.020,478.593 " />
<polygon points="319.700,39.114 159.850,39.114 159.850,198.964 319.700,198.964 " />
<polygon points="196.020,499.345 216.772,499.345 216.772,478.593 196.020,478.593 " />
<polygon points="319.700,39.114 159.850,39.114 159.850,198.964 319.700,198.964 " />
<polygon points="196.020,499.345 216.772,499.345 216.772,478.593 196.020,478.593 " />
<polygon points="319.700,39.114 159.850,39.114 159.850,198.964 319.700,198.964 " />
<polygon points="196.020,499.345 216.772,499.345 216.772,478.593 196.020,478.593 " />
<polygon points="319.700,39.114 159.850,39.114 159.850,198.964 319.700,198.964 " />
<polygon points="10.159,504.364 10.085,507.067 30.691,507.067 30.765,504.364 " />
<polygon points="319.700,39.114 159.850,39.114 159.850,198.964 319.700,198.964 " />
<polygon points="196.020,499.345 216.772,499.345 216.772,478.593 196.020,478.593 " />
<polygon points="196.020,499.345 216.772,499.345 216.772,478.593 196.020,478.593 " />
<polygon points="319.700,39.114 159.850,39.114 159.850,198.964 319.700,198.964 " />
<polygon points="196.020,499.345 216.772,499.345 216.772,478.593 196.020,478.593 " />
<polygon points="196.020,499.345 216.772,499.345 216.772,478.593 196.020,478.593 " />
<polygon points="319.700,39.114 159.850,39.114 159.850,198.964 319.700,198.964 " />
<polygon points="319.700,39.114 159.850,39.114 159.850,198.964 319.700,198.964 " />
<polygon points="196.020,499.345 216.772,499.345 216.772,478.593 196.020,478.593 " />
<polygon points="196.020,499.345 216.772,499.345 216.772,478.593 196.020,478.593 " />
<polygon points="319.700,39.114 159.850,39.114 159.850,198.964 319.700,198.964 " />
<polygon points="319.700,39.114 159.850,39.114 159.850,198.964 319.700,198.964 " />
<polygon points="10.159,504.364 10.085,507.067 30.691,507.067 30.765,504.364 " />
<polygon points="196.020,499.345 216.772,499.345 216.772,478.593 196.020,478.593 " />
<polygon points="196.020,499.345 216.772,499.345 216.772,478.593 196.020,478.593 " />
<polygon points="10.159,504.364 10.085,507.067 30.691,507.067 30.765,504.364 " />
<polygon points="319.700,39.114 159.850,39.114 159.850,198.964 319.700,198.964 " />
<polygon points="319.700,39.114 159.850,39.114 159.850,198.964 319.700,198.964 " />
<polygon points="196.020,499.345 216.772,499.345 216.772,478.593 196.020,478.593 " />
<polygon points="196.020,499.345 216.772,499.345 216.772,478.593 196.020,478.593 " />
<polygon points="319.700,39.114 159.850,39.114 159.850,198.964 319.700,198.964 " />
<polygon points="319.700,39.114 159.850,39.114 159.850,198.964 319.700,198.964 " />
<polygon points="196.020,499.345 216.772,499.345 216.772,478.593 196.020,478.593 " />
<polygon points="196.020,499.345 216.772,499.345 216.772,478.593 196.020,478.593 " />
<polygon points="319.700,39.114 159.850,39.114 159.850,198.964 319.700,198.964 " />
<polygon points="196.020,499.345 216.772,499.345 216.772,478.593 196.020,478.593 " />
<polygon points="196.020,499.345 216.772,499.345 216.772,478.593 196.020,478.593 " />
<polygon points="319.700,39.114 159.850,39.114 159.850,198.964 319.700,198.964 " />
<polygon points="10.159,504.364 10.085,507.067 30.691,507.067 30.765,504.364 " />
<polygon points="196.020,499.345 216.772,499.345 216.772,478.593 196.020,478.593 " />
<polygon points="196.020,499.345 216.772,499.345 216.772,478.593 196.020,478.593 " />
<polygon points="196.020,499.345 216.772,499.345 216.772,478.593 196.020,478.593 " />
<polygon points="196.020,499.345 216.772,499.345 216.772,478.593 196.020,478.593 " />
<polygon points="196.020,499.345 216.772,499.345 216.772,478.593 196.020,478.593 " />
<polygon points="196.020,499.345 216.772,499.345 216.772,478.593 196.020,478.593 " />
<polygon points="196.020,499.345 216.772,499.345 216.772,478.593 196.020,478.593 " />
<polygon points="319.700,39.114 159.850,39.114 159.850,198.964 319.700,198.964 " />
<polygon points="196.020,499.345 216.772,499.345 216.772,478.593 196.020,478.593 " />
<polygon points="319.700,39.114 159.850,39.114 159.850,198.964 319.700,198.964 " />
<polygon points="196.020,499.345 216.772,499.345 216.772,478.593 196.020,478.593 " />
<polygon points="196.020,499.345 216.772,499.345 216.772,478.593 196.020,478.593 " />
<polygon points="319.700,39.114 159.850,39.114 159.850,198.964 319.700,198.964 " />
<polygon points="196.020,499.345 216.772,499.345 216.772,478.593 196.020,478.593 " />
<polygon points="319.700,39.114 159.850,39.114 159.850,198.964 319.700,198.964 " />
<polygon points="196.020,499.345 216.772,499.345 216.772,478.593 196.020,478.593 " />
<polygon points="319.700,39.114 159.850,39.114 159.850,198.964 319.700,198.964 " />
<polygon points="196.020,499.345 216.772,499.345 216.772,478.593 196.020,478.593 " />
<polygon points="319.700,39.114 159.850,39.114 159.850,198.964 319.700,198.964 " />
<polygon points="196.020,499.345 216.772,499.345 216.772,478.593 196.020,478.593 " />
<polygon points="319.700,39.114 159.850,39.114 159.850,198.964 319.700,198.964 " />
<polygon points="196.020,499.345 216.772,499.345 216.772,478.593 196.020,478.593 " />
<polygon points="319.700,39.114 159.850,39.114 159.850,198.964 319.700,198.964 " />
<polygon points="196.020,499.345 216.772,499.345 216.772,478.593 196.020,478.593 " />
<polygon points="319.700,39.114 159.850,39.114 159.850,198.964 319.700,198.964 " />
<polygon points="196.020,499.345 216.772,499.345 216.772,478.593 196.020,478.593 " />
<polygon points="319.700,39.114 159.850,39.114 159.850,198.964 319.700,198.964 " />
<polygon points="196.020,499.345 216.772,499.345 216.772,478.593 196.020,478.593 " />
<polygon points="319.700,39.114 159.850,39.114 159.850,198.964 319.700,198.964 " />
<polygon points="10.159,504.364 10.085,507.067 30.691,507.067 30.765,504.364 " />
<polygon points="319.700,39.114 159.850,39.114 159.850,198.964 319.700,198.964 " />
<polygon points="196.020,499.345 216.772,499.345 216.772,478.593 196.020,478.593 " />
<polygon points="196.020,499.345 216.772,499.345 216.772,478.593 196.020,478.593 " />
<polygon points="319.700,39.114 159.850,39.114 159.850,198.964 319.700,198.964 " />
<polygon points="196.020,499.345 216.772,499.345 216.772,478.593 196.020,478.593 " />
<polygon points="196.020,499.345 216.772,499.345 216.772,478.593 196.020,478.593 " />
<polygon points="319.700,39.114 159.850,39.114 159.850,198.964 319.700,198.964 " />
<polygon points="319.700,39.114 159.850,39.114 159.850,198.964 319.700,198.964 " />
<polygon points="196.020,499.345 216.772,499.345 216.772,478.593 196.020,478.593 " />
<polygon points="196.020,499.345 216.772,499.345 216.772,478.593 196.020,478.593 " />
<polygon points="319.700,39.114 159.850,39.114 159.850,198.964 319.700,198.964 " />
<polygon points="319.700,39.114 159.850,39.114 159.850,198.964 319.700,198.964 " />
<polygon points="10.159,504.364 10.085,507.067 30.691,507.067 30.765,504.364 " />
<polygon points="196.020,499.345 216.772,499.345 216.772,478.593 196.020,478.593 " />
<polygon points="196.020,499.345 216.772,499.345 216.772,478.593 196.020,478.593 " />
<polygon points="10.159,504.364 10.085,507.067 30.691,507.067 30.765,504.364 " />
<polygon points="319.700,39.114 159.850,39.114 159.850,198.964 319.700,198.964 " />
<polygon points="319.700,39.114 159.850,39.114 159.850,198.964 319.700,198.964 " />
<polygon points="196.020,499.345 216.772,499.345 216.772,478.593 196.020,478.593 " />
<polygon points="196.020,499.345 216.772,499.345 216.772,478.593 196.020,478.593 " />
<polygon points="319.700,39.114 159.850,39.114 159.850,198.964 319.700,198.964 " />
<polygon points="319.700,39.114 159.850,39.114 159.850,198.964 319.700,198.964 " />
<polygon points="196.020,499.345 216.772,499.345 216.772,478.593 196.020,478.593 " />
<polygon points="196.020,499.345 216.772,499.345 216.772,478.593 196.020,478.593 " />
<polygon points="319.700,39.114 159.850,39.114 159.850,198.964 319.700,198.964 " />
<polygon points="196.020,499.345 216.772,499.345 216.772,478.593 196.020,478.593 " />
<polygon points="196.020,499.345 216.772,499.345 216.772,478.593 196.020,478.593 " />
<polygon points="319.700,39.114 159.850,39.114 159.850,198.964 319.700,198.964 " />
<polygon points="10.159,504.364 10.085,507.067 30.691,507.067 30.765,504.364 " />
<polygon points="319.700,39.114 159.850,39.114 159.850,198.964 319.700,198.964 " />
<polygon points="196.020,499.345 216.772,499.345 216.772,478.593 196.020,478.593 " />
<polygon points="319.700,39.114 159.850,39.114 159.850,198.964 319.700,198.964 " />
<polygon points="196.020,499.345 216.772,499.345 216.772,478.593 196.020,478.593 " />
<polygon points="319.700,39.114 159.850,39.114 159.850,198.964 319.700,198.964 " />
<polygon points="196.020,499.345 216.772,499.345 216.772,478.593 196.020,478.593 " />
<polygon points="319.700,39.114 159.850,39.114 159.850,198.964 319.700,198.964 " />
<polygon points="196.020,499.345 216.772,499.345 216.772,478.593 196.020,478.593 " />
<polygon points="319.700,39.114 159.850,39.114 159.850,198.964 319.700,198.964 " />
<polygon points="196.020,499.345 216.772,499.345 216.772,478.593 196.020,478.593 " />
<polygon points="319.700,39.114 159.850,39.114 159.850,198.964 319.700,198.964 " />
<polygon points="196.020,499.345 216.772,499.345 216.772,478.593 196.020,478.593 " />
<polygon points="319.700,39.114 159.850,39.114 159.850,198.964 319.700,198.964 " />
<polygon points="196.020,499.345 216.772,499.345 216.772,478.593 196.020,478.593 " />
<polygon points="319.700,39.114 159.850,39.114 159.850,198.964 319.700,198.964 " />
<polygon points="196.020,499.345 216.772,499.345 216.772,478.593 196.020,478.593 " />
<polygon points="319.700,39.114 159.850,39.114 159.850,198.964 319.700,198.964 " />
<polygon points="196.020,499.345 216.772,499.345 216.772,478.593 196.020,478.593 " />
<polygon points="10.159,504.364 10.085,507.067 30.691,507.067 30.765,504.364 " />
<polygon points="10.159,504.364 10.085,507.067 30.691,507.067 30.765,504.364 " />
<polygon points="10.159,504.364 10.085,507.067 30.691,507.067 30.765,504.364 " />
<polygon points="10.159,504.364 10.085,507.067 30.691,507.067 30.765,504.364 " />
<polygon points="10.159,504.364 10.085,507.067 30.691,507.067 30.765,504.364 " />
<polygon points="10.159,504.364 10.085,507.067 30.691,507.067 30.765,504.364 " />
<polygon points="10.159,504.364 10.085,507.067 30.691,507.067 30.765,504.364 " />
<polygon points="10.159,504.364 10.085,507.067 30.691,507.067 30.765,504.364 " />
<polygon points="10.159,504.364 10.085,507.067 30.691,507.067 30.765,504.364 " />
<polygon points="10.159,504.364 10.085,507.067 30.691,507.067 30.765,504.364 " />
<polygon points="10.159,504.364 10.085,507.067 30.691,507.067 30.765,504.364 " />
<polygon points="10.159,504.364 10.085,507.067 30.691,507.067 30.765,504.364 " />
<polygon points="10.159,504.364 10.085,507.067 30.691,507.067 30.765,504.364 " />
<polygon points="10.159,504.364 10.085,507.067 30.691,507.067 30.765,504.364 " />
<polygon points="10.159,504.364 10.085,507.067 30.691,507.067 30.765,504.364 " />
<polygon points="319.700,39.114 159.850,39.114 159.850,198.964 319.700,198.964 " />
<polygon points="10.159,504.364 10.085,507.067 30.691,507.067 30.765,504.364 " />
<polygon points="196.020,499.345 216.772,499.345 216.772,478.593 196.020,478.593 " />
<polygon points="319.700,39.114 159.850,39.114 159.850,198.964 319.700,198.964 " />
<polygon points="196.020,499.345 216.772,499.345 216.772,478.593 196.020,478.593 " />
<polygon points="319.700,39.114 159.850,39.114 159.850,198.964 319.700,198.964 " />
<polygon points="196.020,499.345 216.772,499.345 216.772,478.593 196.020,478.593 " />
<polygon points="319.700,39.114 159.850,39.114 159.850,198.964 319.700,198.964 " />
<polygon points="196.020,499.345 216.772,499.345 216.772,478.593 196.020,478.593 " />
<polygon points="319.700,39.114 159.850,39.114 159.850,198.964 319.700,198.964 " />
<polygon points="196.020,499.345 216.772,499.345 216.772,478.593 196.020,478.593 " />
<polygon points="196.020,499.345 216.772,499.345 216.772,478.593 196.020,478.593 " />
<polygon points="319.700,39.114 159.850,39.114 159.850,198.964 319.700,198.964 " />
<polygon points="196.020,499.345 216.772,499.345 216.772,478.593 196.020,478.593 " />
<polygon points="10.159,504.364 10.085,507.067 30.691,507.067 30.765,504.364 " />
<polygon points="319.700,39.114 159.850,39.114 159.850,198.964 319.700,198.964 " />
<polygon points="196.020,499.345 216.772,499.345 216.772,478.593 196.020,478.593 " />
<polygon points="196.020,499.345 216.772,499.345 216.772,478.593 196.020,478.593 " />
<polygon points="319.700,39.114 159.850,39.114 159.850,198.964 319.700,198.964 " />
<polygon points="319.700,39.114 159.850,39.114 159.850,198.964 319.700,198.964 " />
<polygon points="196.020,499.345 216.772,499.345 216.772,478.593 196.020,478.593 " />
<polygon points="196.020,499.345 216.772,499.345 216.772,478.593 196.020,478.593 " />
<polygon points="319.700,39.114 159.850,39.114 159.850,198.964 319.700,198.964 " />
<polygon points="319.700,39.114 159.850,39.114 159.850,198.964 319.700,198.964 " />
<polygon points="196.020,499.345 216.772,499.345 216.772,478.593 196.020,478.593 " />
<polygon points="196.020,499.345 216.772,499.345 216.772,478.593 196.020,478.593 " />
<polygon points="319.700,39.114 159.850,39.114 159.850,198.964 319.700,198.964 " />
<polygon points="196.020,499.345 216.772,499.345 216.772,478.593 196.020,478.593 " />
<polygon points="196.020,499.345 216.772,499.345 216.772,478.593 196.020,478.593 " />
<polygon points="319.700,39.114 159.850,39.114 159.850,198.964 319.700,198.964 " />
<polygon points="196.020,499.345 216.772,499.345 216.772,478.593 196.020,478.593 " />
<polygon points="196.020,499.345 216.772,499.345 216.772,478.593 196.020,478.593 " />
<polygon points="319.700,39.114 159.850,39.114 159.850,198.964 319.700,198.964 " />
<polygon points="319.700,39.114 159.850,39.114 159.850,198.964 319.700,198.964 " />
<polygon points="196.020,499.345 216.772,499.345 216.772,478.593 196.020,478.593 " />
<polygon points="196.020,499.345 216.772,499.345 216.772,478.593 196.020,478.593 " />
<polygon points="319.700,39.114 159.850,39.114 159.850,198.964 319.700,198.964 " />
<polygon points="319.700,39.114 159.850,39.114 159.850,198.964 319.700,198.964 " />
<polygon points="196.020,499.345 216.772,499.345 216.772,478.593 196.020,478.593 " />
<polygon points="196.020,499.345 216.772,499.345 216.772,478.593 196.020,478.593 " />
<polygon points="319.700,39.114 159.850,39.114 159.850,198.964 319.700,198.964 " />
<polygon points="10.159,504.364 10.085,507.067 30.691,507.067 30.765,504.364 " />
<polygon points="196.020,499.345 216.772,499.345 216.772,478.593 196.020,478.593 " />
<polygon points="319.700,39.114 159.850,39.114 159.850,198.964 319.700,198.964 " />
<polygon points="196.020,499.345 216.772,499.345 216.772,478.593 196.020,478.593 " />
<polygon points="196.020,499.345 216.772,499.345 216.772,478.593 196.020,478.593 " />
<polygon points="319.700,39.114 159.850,39.114 159.850,198.964 319.700,198.964 " />
<polygon points="196.020,499.345 216.772,499.345 216.772,478.593 196.020,478.593 " />
<polygon points="319.700,39.114 159.850,39.114 159.850,198.964 319.700,198.964 " />
<polygon points="196.020,499.345 216.772,499.345 216.772,478.593 196.020,478.593 " />
<polygon points="319.700,39.114 159.850,39.114 159.850,198.964 319.700,198.964 " />
<polygon points="196.020,499.345 216.772,499.345 216.772,478.593 196.020,478.593 " />
<polygon points="319.700,39.114 159.850,39.114 159.850,198.964 319.700,198.964 " />
<polygon points="196.020,499.345 216.772,499.345 216.772,478.593 196.020,478.593 " />
<polygon points="10.159,504.364 10.085,507.067 30.691,507.067 30.765,504.364 " />
<polygon points="319.700,39.114 159.850,39.114 159.850,198.964 319.700,198.964 " />
<polygon points="319.700,39.114 159.850,39.114 159.850,198.964 319.700,198.964 " />
<polygon points="10.159,504.364 10.085,507.067 30.691,507.067 30.765,504.364 " />
<polygon points="196.020,499.345 216.772,499.345 216.772,478.593 196.020,478.593 " />
<polygon points="319.700,39.114 159.850,39.114 159.850,198.964 319.700,198.964 " />
<polygon points="196.020,499.345 216.772,499.345 216.772,478.593 196.020,478.593 " />
<polygon points="319.700,39.114 159.850,39.114 159.850,198.964 319.700,198.964 " />
<polygon points="196.020,499.345 216.772,499.345 216.772,478.593 196.020,478.593 " />
<polygon points="319.700,39.114 159.850,39.114 159.850,198.964 319.700,198.964 " />
<polygon points="196.020,499.345 216.772,499.345 216.772,478.593 196.020,478.593 " />
<polygon points="319.700,39.114 159.850,39.114 159.850,198.964 319.700,198.964 " />
<polygon points="196.020,499.345 216.772,499.345 216.772,478.593 196.020,478.593 " />
<polygon points="196.020,499.345 216.772,499.345 216.772,478.593 196.020,478.593 " />
<polygon points="319.700,39.114 159.850,39.114 159.850,198.964 319.700,198.964 " />
<polygon points="196.020,499.345 216.772,499.345 216.772,478.593 196.020,478.593 " />
<polygon points="10.159,504.364 10.085,507.067 30.691,507.067 30.765,504.364 " />
<polygon points="319.700,39.114 159.850,39.114 159.850,198.964 319.700,198.964 " />
<polygon points="196.020,499.345 216.772,499.345 216.772,478.593 196.020,478.593 " />
<polygon points="196.020,499.345 216.772,499.345 216.772,478.593 196.020,478.593 " />
<polygon points="319.700,39.114 159.850,39.114 159.850,198.964 319.700,198.964 " />
<polygon points="319.700,39.114 159.850,39.114 159.850,198.964 319.700,198.964 " />
<polygon points="196.020,499.345 216.772,499.345 216.772,478.593 196.020,478.593 " />
<polygon points="196.020,499.345 216.772,499.345 216.772,478.593 196.020,478.593 " />
<polygon points="319.700,39.114 159.850,39.114 159.850,198.964 319.700,198.964 " />
<polygon points="319.700,39.114 159.850,39.114 159.850,198.964 319.700,198.964 " />
<polygon points="196.020,499.345 216.772,499.345 216.772,478.593 196.020,478.593 " />
<polygon points="196.020,499.345 216.772,499.345 216.772,478.593 196.020,478.593 " />
<polygon points="319.700,39.114 159.850,39.114 159.850,198.964 319.700,198.964 " />
<polygon points="196.020,499.345 216.772,499.345 216.772,478.593 196.020,478.593 " />
<polygon points="196.020,499.345 216.772,499.345 216.772,478.593 196.020,478.593 " />
<polygon points="319.700,39.114 159.850,39.114 159.850,198.964 319.700,198.964 " />
<polygon points="196.020,499.345 216.772,499.345 216.772,478.593 196.020,478.593 " />
<polygon points="196.020,499.345 216.772,499.345 216.772,478.593 196.020,478.593 " />
<polygon points="319.700,39.114 159.850,39.114 159.850,198.964 319.700,198.964 " />
<polygon points="319.700,39.114 159.850,39.114 159.850,198.964 319.700,198.964 " />
<polygon points="196.020,499.345 216.772,499.345 216.772,478.593 196.020,478.593 " />
<polygon points="196.020,499.345 216.772,499.345 216.772,478.593 196.020,478.593 " />
<polygon points="319.700,39.114 159.850,39.114 159.850,198.964 319.700,198.964 " />
<polygon points="319.700,39.114 159.850,39.114 159.850,198.964 319.700,198.964 " />
<polygon points="196.020,499.345 216.772,499.345 216.772,478.593 196.020,478.593 " />
<polygon points="196.020,499.345 216.772,499.345 216.772,478.593 196.020,478.593 " />
<polygon points="319.700,39.114 159.850,39.114 159.850,198.964 319.700,198.964 " />
<polygon points="10.159,504.364 10.085,507.067 30.691,507.067 30.765,504.364 " />
<polygon points="196.020,499.345 216.772,499.345 216.772,478.593 196.020,478.593 " />
<polygon points="319.700,39.114 159.850,39.114 159.850,198.964 319.700,198.964 " />
<polygon points="196.020,499.345 216.772,499.345 216.772,478.593 196.020,478.593 " />
<polygon points="196.020,499.345 216.772,499.345 216.772,478.593 196.020,478.593 " />
<polygon points="319.700,39.114 159.850,39.114 159.850,198.964 319.700,198.964 " />
<polygon points="196.020,499.345 216.772,499.345 216.772,478.593 196.020,478.593 " />
<polygon points="319.700,39.114 159.850,39.114 159.850,198.964 319.700,198.964 " />
<polygon points="196.020,499.345 216.772,499.345 216.772,478.593 196.020,478.593 " />
<polygon points="319.700,39.114 159.850,39.114 159.850,198.964 319.700,198.964 " />
<polygon points="196.020,499.345 216.772,499.345 216.772,478.593 196.020,478.593 " />
<polygon points="319.700,39.114 159.850,39.114 159.850,198.964 319.700,198.964 " />
<polygon points="196.020,499.345 216.772,499.345 216.772,478.593 196.020,478.593 " />
<polygon points="10.159,504.364 10.085,507.067 30.691,507.067 30.765,504.364 " />
<polygon points="319.700,39.114 159.850,39.114 159.850,198.964 319.700,198.964 " />
<polygon points="319.700,39.114 159.850,39.114 159.850,198.964 319.700,198.964 " />
<polygon points="10.159,504.364 10.085,507.067 30.691,507.067 30.765,504.364 " />
<polygon points="196.020,499.345 216.772,499.345 216.772,478.593 196.020,478.593 " />
<polygon points="319.700,39.114 159.850,39.114 159.850,198.964 319.700,198.964 " />
<polygon points="196.020,499.345 216.772,499.345 216.772,478.593 196.020,478.593 " />
<polygon points="319.700,39.114 159.850,39.114 159.850,198.964 319.700,198.964 " />
<polygon points="196.020,499.345 216.772,499.345 216.772,478.593 196.020,478.593 " />
<polygon points="319.700,39.114 159.850,39.114 159.850,198.964 319.700,198.964 " />
<polygon points="196.020,499.345 216.772,499.345 216.772,478.593 196.020,478.593 " />
<polygon points="319.700,39.114 159.850,39.114 159.850,198.964 319.700,198.964 " />
<polygon points="196.020,499.345 216.772,499.345 216.772,478.593 196.020,478.593 " />
<polygon points="196.020,499.345 216.772,499.345 216.772,478.593 196.020,478.593 " />
<polygon points="319.700,39.114 159.850,39.114 159.850,198.964 319.700,198.964 " />
<polygon points="196.020,499.345 216.772,499.345 216.772,478.593 196.020,478.593 " />
<polygon points="10.159,504.364 10.085,507.067 30.691,507.067 30.765,504.364 " />
<polygon points="319.700,39.114 159.850,39.114 159.850,198.964 319.700,198.964 " />
<polygon points="196.020,499.345 216.772,499.345 216.772,478.593 196.020,478.593 " />
<polygon points="196.020,499.345 216.772,499.345 216.772,478.593 196.020,478.593 " />
<polygon points="319.700,39.114 159.850,39.114 159.850,198.964 319.700,198.964 " />
<polygon points="319.700,39.114 159.850,39.114 159.850,198.964 319.700,198.964 " />
<polygon points="196.020,499.345 216.772,499.345 216.772,478.593 196.020,478.593 " />
<polygon points="196.020,499.345 216.772,499.345 216.772,478.593 196.020,478.593 " />
<polygon points="319.700,39.114 159.850,39.114 159.850,198.964 319.700,198.964 " />
<polygon points="319.700,39.114 159.850,39.114 159.850,198.964 319.700,198.964 " />
<polygon points="196.020,499.345 216.772,499.345 216.772,478.593 196.020,478.593 " />
<polygon points="196.020,499.345 216.772,499.345 216.772,478.593 196.020,478.593 " />
<polygon points="319.700,39.114 159.850,39.114 159.850,198.964 319.700,198.964 " />
<polygon points="196.020,499.345 216.772,499.345 216.772,478.593 196.020,478.593 " />
<polygon points="196.020,499.345 216.772,499.345 216.772,478.593 196.020,478.593 " />
<polygon points="319.700,39.114 159.850,39.114 159.850,198.964 319.700,198.964 " />
<polygon points="319.700,39.114 159.850,39.114 159.850,198.964 319.700,198.964 " />
<polygon points="196.020,499.345 216.772,499.345 216.772,478.593 196.020,478.593 " />
<polygon points="196.020,499.345 216.772,499.345 216.772,478.593 196.020,478.593 " />
<polygon points="319.700,39.114 159.850,39.114 159.850,198.964 319.700,198.964 " />
<polygon points="319.700,39.114 159.850,39.114 159.850,198.964 319.700,198.964 " />
<polygon points="196.020,499.345 216.772,499.345 216.772,478.593 196.020,478.593 " />
<polygon points="196.020,499.345 216.772,499.345 216.772,478.593 196.020,478.593 " />
<polygon points="319.700,39.114 159.850,39.114 159.850,198.964 319.700,198.964 " />
<polygon points="319.700,39.114 159.850,39.114 159.850,198.964 319.700,198.964 " />
<polygon points="196.020,499.345 216.772,499.345 216.772,478.593 196.020,478.593 " />
<polygon points="196.020,499.345 216.772,499.345 216.772,478.593 196.020,478.593 " />
<polygon points="319.700,39.114 159.850,39.114 159.850,198.964 319.700,198.964 " />
<polygon points="319.700,39.114 159.850,39.114 159.850,198.964 319.700,198.964 " />
<polygon points="196.020,499.345 216.772,499.345 216.772,478.593 196.020,478.593 " />
<polygon points="196.020,499.345 216.772,499.345 216.772,478.593 196.020,478.593 " />
<polygon points="319.700,39.114 159.850,39.114 159.850,198.964 319.700,198.964 " />
<polygon points="10.159,504.364 10.085,507.067 30.691,507.067 30.765,504.364 " />
<polygon points="196.020,499.345 216.772,499.345 216.772,478.593 196.020,478.593 " />
<polygon points="319.700,39.114 159.850,39.114 159.850,198.964 319.700,198.964 " />
<polygon points="196.020,499.345 216.772,499.345 216.772,478.593 196.020,478.593 " />
<polygon points="196.020,499.345 216.772,499.345 216.772,478.593 196.020,478.593 " />
<polygon points="319.700,39.114 159.850,39.114 159.850,198.964 319.700,198.964 " />
<polygon points="196.020,499.345 216.772,499.345 216.772,478.593 196.020,478.593 " />
<polygon points="319.700,39.114 159.850,39.114 159.850,198.964 319.700,198.964 " />
<polygon points="196.020,499.345 216.772,499.345 216.772,478.593 196.020,478.593 " />
<polygon points="319.700,39.114 159.850,39.114 159.850,198.964 319.700,198.964 " />
<polygon points="196.020,499.345 216.772,499.345 216.772,478.593 196.020,478.593 " />
<polygon points="319.700,39.114 159.850,39.114 159.850,198.964 319.700,198.964 " />
<polygon points="196.020,499.345 216.772,499.345 216.772,478.593 196.020,478.593 " />
<polygon points="10.159,504.364 10.085,507.067 30.691,507.067 30.765,504.364 " />
<polygon points="319.700,39.114 159.850,39.114 159.850,198.964 319.700,198.964 " />
<polygon points="319.700,39.114 159.850,39.114 159.850,198.964 319.700,198.964 " />
<polygon points="10.159,504.364 10.085,507.067 30.691,507.067 30.765,504.364 " />
<polygon points="196.020,499.345 216.772,499.345 216.772,478.593 196.020,478.593 " />
<polygon points="319.700,39.114 159.850,39.114 159.850,198.964 319.700,198.964 " />
<polygon points="196.020,499.345 216.772,499.345 216.772,478.593 196.020,478.593 " />
<polygon points="319.700,39.114 159.850,39.114 159.850,198.964 319.700,198.964 " />
<polygon points="196.020,499.345 216.772,499.345 216.772,478.593 196.020,478.593 " />
<polygon points="319.700,39.114 159.850,39.114 159.850,198.964 319.700,198.964 " />
<polygon points="196.020,499.345 216.772,499.345 216.772,478.593 196.020,478.593 " />
<polygon points="319.700,39.114 159.850,39.114 159.850,198.964 319.700,198.964 " />
<polygon points="196.020,499.345 216.772,499.345 216.772,478.593 196.020,478.593 " />
<polygon points="196.020,499.345 216.772,499.345 216.772,478.593 196.020,478.593 " />
<polygon points="319.700,39.114 159.850,39.114 159.850,198.964 319.700,198.964 " />
<polygon points="196.020,499.345 216.772,499.345 216.772,478.593 196.020,478.593 " />
<polygon points="10.159,504.364 10.085,507.067 30.691,507.067 30.765,504.364 " />
<polygon points="319.700,39.114 159.850,39.114 159.850,198.964 319.700,198.964 " />
<polygon points="196.020,499.345 216.772,499.345 216.772,478.593 196.020,478.593 " />
<polygon points="196.020,499.345 216.772,499.345 216.772,478.593 196.020,478.593 " />
<polygon points="319.700,39.114 159.850,39.114 159.850,198.964 319.700,198.964 " />
<polygon points="319.700,39.114 159.850,39.114 159.850,198.964 319.700,198.964 " />
<polygon points="196.020,499.345 216.772,499.345 216.772,478.593 196.020,478.593 " />
<polygon points="196.020,499.345 216.772,499.345 216.772,478.593 196.020,478.593 " />
<polygon points="319.700,39.114 159.850,39.114 159.850,198.964 319.700,198.964 " />
<polygon points="319.700,39.114 159.850,39.114 159.850,198.964 319.700,198.964 " />
<polygon points="196.020,499.345 216.772,499.345 216.772,478.593 196.020,478.593 " />
<polygon points="196.020,499.345 216.772,499.345 216.772,478.593 196.020,478.593 " />
<polygon points="319.700,39.114 159.850,39.114 159.850,198.964 319.700,198.964 " />
<polygon points="319.700,39.114 159.850,39.114 159.850,198.964 319.700,198.964 " />
<polygon points="196.020,499.345 216.772,499.345 216.772,478.593 196.020,478.593 " />
<polygon points="196.020,499.345 216.772,499.345 216.772,478.593 196.020,478.593 " />
<polygon points="319.700,39.114 159.850,39.114 159.850,198.964 319.700,198.964 " />
<polygon points="319.700,39.114 159.850,39.114 159.850,198.964 319.700,198.964 " />
<polygon points="196.020,499.345 216.772,499.345 216.772,478.593 196.020,478.593 " />
<polygon points="196.020,499.345 216.772,499.345 216.772,478.593 196.020,478.593 " />
<polygon points="319.700,39.114 159.850,39.114 159.850,198.964 319.700,198.964 " />
<polygon points="319.700,39.114 159.850,39.114 159.850,198.964 319.700,198.964 " />
<polygon points="196.020,499.345 216.772,499.345 216.772,478.593 196.020,478.593 " />
<polygon points="196.020,499.345 216.772,499.345 216.772,478.593 196.020,478.593 " />
<polygon points="319.700,39.114 159.850,39.114 159.850,198.964 319.700,198.964 " />
<polygon points="319.700,39.114 159.850,39.114 159.850,198.964 319.700,198.964 " />
<polygon points="196.020,499.345 216.772,499.345 216.772,478.593 196.020,478.593 " />
<polygon points="196.020,499.345 216.772,499.345 216.772,478.593 196.020,478.593 " />
<polygon points="319.700,39.114 159.850,39.114 159.850,198.964 319.700,198.964 " />
<polygon points="319.700,39.114 159.850,39.114 159.850,198.964 319.700,198.964 " />
<polygon points="196.020,499.345 216.772,499.345 216.772,478.593 196.020,478.593 " />
<polygon points="196.020,499.345 216.772,499.345 216.772,478.593 196.020,478.593 " />
<polygon points="319.700,39.114 159.850,39.114 159.850,198.964 319.700,198.964 " />
<polygon points="319.700,39.114 159.850,39.114 159.850,198.964 319.700,198.964 " />
<polygon points="196.020,499.345 216.772,499.345 216.772,478.593 196.020,478.593 " />
<polygon points="196.020,499.345 216.772,499.345 216.772,478.593 196.020,478.593 " />
<polygon points="319.700,39.114 159.850,39.114 159.850,198.964 319.700,198.964 " />
<polygon points="10.159,504.364 10.085,507.067 30.691,507.067 30.765,504.364 " />
<polygon points="196.020,499.345 216.772,499.345 216.772,478.593 196.020,478.593 " />
<polygon points="319.700,39.114 159.850,39.114 159.850,198.964 319.700,198.964 " />
<polygon points="196.020,499.345 216.772,499.345 216.772,478.593 196.020,478.593 " />
<polygon points="319.700,39.114 159.850,39.114 159.850,198.964 319.700,198.964 " />
<polygon points="196.020,499.345 216.772,499.345 216.772,478.593 196.020,478.593 " />
<polygon points="319.700,39.114 159.850,39.114 159.850,198.964 319.700,198.964 " />
<polygon points="196.020,499.345 216.772,499.345 216.772,478.593 196.020,478.593 " />
<polygon points="319.700,39.114 159.850,39.114 159.850,198.964 319.700,198.964 " />
<polygon points="196.020,499.345 216.772,499.345 216.772,478.593 196.020,478.593 " />
<polygon points="319.700,39.114 159.850,39.114 159.850,198.964 319.700,198.964 " />
<polygon points="196.020,499.345 216.772,499.345 216.772,478.593 196.020,478.593 " />
<polygon points="319.700,39.114 159.850,39.114 159.850,198.964 319.700,198.964 " />
<polygon points="196.020,499.345 216.772,499.345 216.772,478.593 196.020,478.593 " />
<polygon points="10.159,504.364 10.085,507.067 30.691,507.067 30.765,504.364 " />
<polygon points="319.700,39.114 159.850,39.114 159.850,198.964 319.700,198.964 " />
<polygon points="10.159,504.364 10.085,507.067 30.691,507.067 30.765,504.364 " />
<polygon points="10.159,504.364 10.085,507.067 30.691,507.067 30.765,504.364 " />
<polygon points="10.159,504.364 10.085,507.067 30.691,507.067 30.765,504.364 " />
<polygon points="10.159,504.364 10.085,507.067 30.691,507.067 30.765,504.364 " />
<polygon points="10.159,504.364 10.085,507.067 30.691,507.067 30.765,504.364 " />
<polygon points="10.159,504.364 10.085,507.067 30.691,507.067 30.765,504.364 " />
<polygon points="10.159,504.364 10.085,507.067 30.691,507.067 30.765,504.364 " />
<polygon points="10.159,504.364 10.085,507.067 30.691,507.067 30.765,504.364 " />
<polygon points="10.159,504.364 10.085,507.067 30.691,507.067 30.765,504.364 " />
<polygon points="10.159,504.364 10.085,507.067 30.691,507.067 30.765,504.364 " />
<polygon points="10.159,504.364 10.085,507.067 30.691,507.067 30.765,504.364 " />
<polygon points="10.159,504.364 10.085,507.067 30.691,507.067 30.765,504.364 " />
<polygon points="10.159,504.364 10.085,507.067 30.691,507.067 30.765,504.364 " />
<polygon points="10.159,504.364 10.085,507.067 30.691,507.067 30.765,504.364 " />
<polygon points="10.159,504.364 10.085,507.067 30.691,507.067 30.765,504.364 " />
<polygon points="10.159,504.364 10.085,507.067 30.691,507.067 30.765,504.364 " />
<polygon points="319.700,106.910 319.700,198.964 472.887,198.964 472.887,106.910 " />
<polygon points="319.700,106.910 319.700,198.964 472.887,198.964 472.887,106.910 " />
<polygon points="319.700,106.910 319.700,198.964 472.887,198.964 472.887,106.910 " />
<polygon points="319.700,106.910 319.700,198.964 472.887,198.964 472.887,106.910 " />
<polygon points="319.700,106.910 319.700,198.964 472.887,198.964 472.887,106.910 " />
<polygon points="319.700,106.910 319.700,198.964 472.887,198.964 472.887,106.910 " />
<polygon points="319.700,106.910 319.700,198.964 472.887,198.964 472.887,106.910 " />
<polygon points="319.700,106.910 319.700,198.964 472.887,198.964 472.887,106.910 " />
<polygon points="319.700,106.910 319.700,198.964 472.887,198.964 472.887,106.910 " />
<polygon points="319.700,106.910 319.700,198.964 472.887,198.964 472.887,106.910 " />
<polygon points="319.700,106.910 319.700,198.964 472.887,198.964 472.887,106.910 " />
<polygon points="319.700,106.910 319.700,198.964 472.887,198.964 472.887,106.910 " />
<polygon points="319.700,106.910 319.700,198.964 472.887,198.964 472.887,106.910 " />
<polygon points="319.700,106.910 319.700,198.964 472.887,198.964 472.887,106.910 " />
<polygon points="319.700,106.910 319.700,198.964 472.887,198.964 472.887,106.910 " />
<polygon points="319.700,106.910 319.700,198.964 472.887,198.964 472.887,106.910 " />
<polygon points="137.667,131.360 130.750,131.360 123.832,143.811 144.585,143.811 " />
<polygon points="23.943,386.910 22.315,374.546 22.315,388.790 " />
<polygon points="42.368,374.546 40.740,385.860 42.368,388.790 " />
<polygon points="319.700,106.910 319.700,198.964 472.887,198.964 472.887,106.910 " />
<polygon points="319.700,106.910 319.700,198.964 472.887,198.964 472.887,106.910 " />
<polygon points="319.700,106.910 319.700,198.964 472.887,198.964 472.887,106.910 " />
<polygon points="319.700,106.910 319.700,198.964 472.887,198.964 472.887,106.910 " />
<polygon points="319.700,106.910 319.700,198.964 472.887,198.964 472.887,106.910 " />
<polygon points="319.700,106.910 319.700,198.964 472.887,198.964 472.887,106.910 " />
<polygon points="319.700,106.910 319.700,198.964 472.887,198.964 472.887,106.910 " />
<polygon points="319.700,106.910 319.700,198.964 472.887,198.964 472.887,106.910 " />
<polygon points="319.700,106.910 319.700,198.964 472.887,198.964 472.887,106.910 " />
<polygon points="319.700,106.910 319.700,198.964 472.887,198.964 472.887,106.910 " />
<polygon points="319.700,106.910 319.700,198.964 472.887,198.964 472.887,106.910 " />
<polygon points="319.700,106.910 319.700,198.964 472.887,198.964 472.887,106.910 " />
<polygon points="0.000,409.876 0.000,460.938 171.268,512.000 171.268,358.814 " />
<polygon points="0.001,102.906 0.000,198.964 159.850,198.964 " />
<polygon points="0.001,102.906 0.000,198.964 159.850,198.964 " />
<polygon points="0.000,358.814 159.850,358.814 159.850,198.964 0.000,198.964 " />
<polygon points="0.000,358.814 159.850,358.814 159.850,198.964 0.000,198.964 " />
<polygon points="0.000,358.814 159.850,358.814 159.850,198.964 0.000,198.964 " />
<polygon points="0.000,358.814 159.850,358.814 159.850,198.964 0.000,198.964 " />
<polygon points="0.000,358.814 159.850,358.814 159.850,198.964 0.000,198.964 " />
<polygon points="0.000,358.814 159.850,358.814 159.850,198.964 0.000,198.964 " />
<polygon points="0.000,358.814 159.850,358.814 159.850,198.964 0.000,198.964 " />
<polygon points="0.000,358.814 159.850,358.814 159.850,198.964 0.000,198.964 " />
<polygon points="0.000,358.814 159.850,358.814 159.850,198.964 0.000,198.964 " />
<polygon points="0.000,358.814 159.850,358.814 159.850,198.964 0.000,198.964 " />
<polygon points="0.000,358.814 159.850,358.814 159.850,198.964 0.000,198.964 " />
<polygon points="0.000,358.814 159.850,358.814 159.850,198.964 0.000,198.964 " />
<polygon points="0.000,358.814 159.850,358.814 159.850,198.964 0.000,198.964 " />
<polygon points="0.000,358.814 159.850,358.814 159.850,198.964 0.000,198.964 " />
<polygon points="0.000,358.814 159.850,358.814 159.850,198.964 0.000,198.964 " />
<polygon points="0.000,358.814 159.850,358.814 159.850,198.964 0.000,198.964 " />
<polygon points="0.000,358.814 159.850,358.814 159.850,198.964 0.000,198.964 " />
<polygon points="0.000,358.814 159.850,358.814 159.850,198.964 0.000,198.964 " />
<polygon points="0.000,358.814 159.850,358.814 159.850,198.964 0.000,198.964 " />
<polygon points="0.000,358.814 159.850,358.814 159.850,198.964 0.000,198.964 " />
<polygon points="0.000,358.814 159.850,358.814 159.850,198.964 0.000,198.964 " />
<polygon points="0.000,358.814 159.850,358.814 159.850,198.964 0.000,198.964 " />
<polygon points="0.000,358.814 159.850,358.814 159.850,198.964 0.000,198.964 " />
<polygon points="0.000,358.814 159.850,358.814 159.850,198.964 0.000,198.964 " />
<polygon points="0.000,358.814 159.850,358.814 159.850,198.964 0.000,198.964 " />
<polygon points="0.000,358.814 159.850,358.814 159.850,198.964 0.000,198.964 " />
<polygon points="0.000,358.814 159.850,358.814 159.850,198.964 0.000,198.964 " />
<polygon points="0.000,358.814 159.850,358.814 159.850,198.964 0.000,198.964 " />
<polygon points="445.444,365.121 498.728,365.121 498.728,205.271 445.444,205.271 " />
<polygon points="445.444,365.121 498.728,365.121 498.728,205.271 445.444,205.271 " />
<polygon points="445.444,365.121 498.728,365.121 498.728,205.271 445.444,205.271 " />
<polygon points="445.444,365.121 498.728,365.121 498.728,205.271 445.444,205.271 " />
<polygon points="0.000,358.814 159.850,358.814 159.850,198.964 0.000,198.964 " />
<polygon points="0.000,358.814 159.850,358.814 159.850,198.964 0.000,198.964 " />
<polygon points="0.000,358.814 159.850,358.814 159.850,198.964 0.000,198.964 " />
<polygon points="0.000,358.814 159.850,358.814 159.850,198.964 0.000,198.964 " />
<polygon points="0.000,358.814 159.850,358.814 159.850,198.964 0.000,198.964 " />
<polygon points="0.000,358.814 159.850,358.814 159.850,198.964 0.000,198.964 " />
<polygon points="0.000,358.814 159.850,358.814 159.850,198.964 0.000,198.964 " />
<polygon points="0.000,358.814 159.850,358.814 159.850,198.964 0.000,198.964 " />
<polygon points="0.000,358.814 159.850,358.814 159.850,198.964 0.000,198.964 " />
<polygon points="0.000,358.814 159.850,358.814 159.850,198.964 0.000,198.964 " />
<polygon points="0.000,358.814 159.850,358.814 159.850,198.964 0.000,198.964 " />
<polygon points="0.000,358.814 159.850,358.814 159.850,198.964 0.000,198.964 " />
<polygon points="0.000,358.814 159.850,358.814 159.850,198.964 0.000,198.964 " />
<polygon points="0.000,358.814 159.850,358.814 159.850,198.964 0.000,198.964 " />
<polygon points="0.000,358.814 159.850,358.814 159.850,198.964 0.000,198.964 " />
<polygon points="0.000,358.814 159.850,358.814 159.850,198.964 0.000,198.964 " />
<polygon points="0.000,358.814 159.850,358.814 159.850,198.964 0.000,198.964 " />
<polygon points="0.000,358.814 159.850,358.814 159.850,198.964 0.000,198.964 " />
<polygon points="0.000,358.814 159.850,358.814 159.850,198.964 0.000,198.964 " />
<polygon points="0.000,358.814 159.850,358.814 159.850,198.964 0.000,198.964 " />
<polygon points="0.000,358.814 159.850,358.814 159.850,198.964 0.000,198.964 " />
<polygon points="0.000,358.814 159.850,358.814 159.850,198.964 0.000,198.964 " />
<polygon points="0.000,358.814 159.850,358.814 159.850,198.964 0.000,198.964 " />
<polygon points="0.000,358.814 159.850,358.814 159.850,198.964 0.000,198.964 " />
<polygon points="0.000,358.814 159.850,358.814 159.850,198.964 0.000,198.964 " />
<polygon points="0.000,358.814 159.850,358.814 159.850,198.964 0.000,198.964 " />
<polygon points="0.000,358.814 159.850,358.814 159.850,198.964 0.000,198.964 " />
<polygon points="0.000,358.814 159.850,358.814 159.850,198.964 0.000,198.964 " />
<polygon points="0.000,49.623 0.000,102.906 159.850,102.906 159.850,49.623 " />
<polygon points="0.000,49.623 0.000,102.906 159.850,102.906 159.850,49.623 " />
<polygon points="0.000,49.623 0.000,102.906 159.850,102.906 159.850,49.623 " />
<polygon points="0.000,49.623 0.000,102.906 159.850,102.906 159.850,49.623 " />
<polygon points="0.000,49.623 0.000,102.906 159.850,102.906 159.850,49.623 " />
<polygon points="0.000,49.623 0.000,102.906 159.850,102.906 159.850,49.623 " />
<polygon points="0.000,49.623 0.000,102.906 159.850,102.906 159.850,49.623 " />
<polygon points="0.000,49.623 0.000,102.906 159.850,102.906 159.850,49.623 " />
<polygon points="0.000,49.623 0.000,102.906 159.850,102.906 159.850,49.623 " />
<polygon points="0.000,49.623 0.000,102.906 159.850,102.906 159.850,49.623 " />
<polygon points="0.000,49.623 0.000,102.906 159.850,102.906 159.850,49.623 " />
<polygon points="0.000,49.623 0.000,102.906 159.850,102.906 159.850,49.623 " />
<polygon points="474.323,511.225 474.323,415.167 401.743,435.423 405.007,444.723 " />
<polygon points="445.444,285.680 411.158,205.271 342.585,205.271 319.700,358.814 " />
<polygon points="171.268,358.814 260.580,504.155 329.895,474.599 329.895,378.541 " />
<polygon points="319.700,106.910 319.700,198.964 472.887,198.964 472.887,106.910 " />
<polygon points="319.700,106.910 319.700,198.964 472.887,198.964 472.887,106.910 " />
<polygon points="0.000,409.876 0.000,460.938 171.268,512.000 171.268,358.814 " />
<polygon points="0.001,102.906 0.000,198.964 159.850,198.964 " />
<polygon points="0.001,102.906 0.000,198.964 159.850,198.964 " />
<polygon points="319.700,106.910 319.700,198.964 472.887,198.964 472.887,106.910 " />
<polygon points="319.700,106.910 319.700,198.964 472.887,198.964 472.887,106.910 " />
<polygon points="319.700,106.910 319.700,198.964 472.887,198.964 472.887,106.910 " />
<polygon points="319.700,106.910 319.700,198.964 472.887,198.964 472.887,106.910 " />
<polygon points="319.700,106.910 319.700,198.964 472.887,198.964 472.887,106.910 " />
<polygon points="319.700,106.910 319.700,198.964 472.887,198.964 472.887,106.910 " />
<polygon points="319.700,106.910 319.700,198.964 472.887,198.964 472.887,106.910 " />
<polygon points="319.700,106.910 319.700,198.964 472.887,198.964 472.887,106.910 " />
<polygon points="0.000,409.876 0.000,460.938 171.268,512.000 171.268,358.814 " />
<polygon points="0.001,102.906 0.000,198.964 159.850,198.964 " />
<polygon points="0.001,102.906 0.000,198.964 159.850,198.964 " />
<polygon points="0.000,358.814 159.850,358.814 159.850,198.964 0.000,198.964 " />
<polygon points="0.000,358.814 159.850,358.814 159.850,198.964 0.000,198.964 " />
<polygon points="0.000,358.814 159.850,358.814 159.850,198.964 0.000,198.964 " />
<polygon points="0.000,358.814 159.850,358.814 159.850,198.964 0.000,198.964 " />
<polygon points="0.000,358.814 159.850,358.814 159.850,198.964 0.000,198.964 " />
<polygon points="0.000,358.814 159.850,358.814 159.850,198.964 0.000,198.964 " />
<polygon points="0.000,358.814 159.850,358.814 159.850,198.964 0.000,198.964 " />
<polygon points="0.000,358.814 159.850,358.814 159.850,198.964 0.000,198.964 " />
<polygon points="0.000,358.814 159.850,358.814 159.850,198.964 0.000,198.964 " />
<polygon points="0.000,358.814 159.850,358.814 159.850,198.964 0.000,198.964 " />
<polygon points="329.895,511.225 401.743,511.224 401.743,358.814 329.895,358.814 " />
<polygon points="329.895,511.225 401.743,511.224 401.743,358.814 329.895,358.814 " />
<polygon points="472.887,198.964 510.065,198.964 510.065,41.231 472.887,41.231 " />
<polygon points="472.887,198.964 510.065,198.964 510.065,41.231 472.887,41.231 " />
<polygon points="445.444,365.121 498.728,365.121 498.728,205.271 445.444,205.271 " />
<polygon points="445.444,365.121 498.728,365.121 498.728,205.271 445.444,205.271 " />
<polygon points="0.000,49.623 0.000,102.906 159.850,102.906 159.850,49.623 " />
<polygon points="0.000,49.623 0.000,102.906 159.850,102.906 159.850,49.623 " />
<polygon points="0.000,49.623 0.000,102.906 159.850,102.906 159.850,49.623 " />
<polygon points="399.625,80.269 372.983,53.627 319.700,106.910 372.983,106.910 " />
<polygon points="512.000,490.521 512.000,452.844 474.323,415.167 474.323,490.521 " />
<polygon points="0.000,409.876 0.000,460.938 171.268,512.000 171.268,358.814 " />
<polygon points="0.001,102.906 0.000,198.964 159.850,198.964 " />
<polygon points="0.001,102.906 0.000,198.964 159.850,198.964 " />
<polygon points="319.700,106.910 319.700,198.964 472.887,198.964 472.887,106.910 " />
<polygon points="319.700,106.910 319.700,198.964 472.887,198.964 472.887,106.910 " />
<polygon points="319.700,106.910 319.700,198.964 472.887,198.964 472.887,106.910 " />
<polygon points="319.700,106.910 319.700,198.964 472.887,198.964 472.887,106.910 " />
<polygon points="319.700,106.910 319.700,198.964 472.887,198.964 472.887,106.910 " />
<polygon points="319.700,106.910 319.700,198.964 472.887,198.964 472.887,106.910 " />
<polygon points="319.700,106.910 319.700,198.964 472.887,198.964 472.887,106.910 " />
<polygon points="319.700,106.910 319.700,198.964 472.887,198.964 472.887,106.910 " />
<polygon points="319.700,106.910 319.700,198.964 472.887,198.964 472.887,106.910 " />
<polygon points="319.700,106.910 319.700,198.964 472.887,198.964 472.887,106.910 " />
<polygon points="0.000,409.876 0.000,460.938 171.268,512.000 171.268,358.814 " />
<polygon points="0.001,102.906 0.000,198.964 159.850,198.964 " />
<polygon points="0.001,102.906 0.000,198.964 159.850,198.964 " />
<polygon points="0.000,358.814 159.850,358.814 159.850,198.964 0.000,198.964 " />
<polygon points="0.000,358.814 159.850,358.814 159.850,198.964 0.000,198.964 " />
<polygon points="0.000,358.814 159.850,358.814 159.850,198.964 0.000,198.964 " />
<polygon points="0.000,358.814 159.850,358.814 159.850,198.964 0.000,198.964 " />
<polygon points="0.000,358.814 159.850,358.814 159.850,198.964 0.000,198.964 " />
<polygon points="0.000,358.814 159.850,358.814 159.850,198.964 0.000,198.964 " />
<polygon points="0.000,358.814 159.850,358.814 159.850,198.964 0.000,198.964 " />
<polygon points="0.000,358.814 159.850,358.814 159.850,198.964 0.000,198.964 " />
<polygon points="0.000,358.814 159.850,358.814 159.850,198.964 0.000,198.964 " />
<polygon points="0.000,358.814 159.850,358.814 159.850,198.964 0.000,198.964 " />
<polygon points="445.444,365.121 498.728,365.121 498.728,205.271 445.444,205.271 " />
<polygon points="445.444,365.121 498.728,365.121 498.728,205.271 445.444,205.271 " />
<polygon points="445.444,365.121 498.728,365.121 498.728,205.271 445.444,205.271 " />
<polygon points="445.444,365.121 498.728,365.121 498.728,205.271 445.444,205.271 " />
<polygon points="0.000,358.814 159.850,358.814 159.850,198.964 0.000,198.964 " />
<polygon points="0.000,358.814 159.850,358.814 159.850,198.964 0.000,198.964 " />
<polygon points="0.000,358.814 159.850,358.814 159.850,198.964 0.000,198.964 " />
<polygon points="0.000,358.814 159.850,358.814 159.850,198.964 0.000,198.964 " />
<polygon points="0.000,358.814 159.850,358.814 159.850,198.964 0.000,198.964 " />
<polygon points="0.000,358.814 159.850,358.814 159.850,198.964 0.000,198.964 " />
<polygon points="0.000,358.814 159.850,358.814 159.850,198.964 0.000,198.964 " />
<polygon points="0.000,358.814 159.850,358.814 159.850,198.964 0.000,198.964 " />
<polygon points="0.000,358.814 159.850,358.814 159.850,198.964 0.000,198.964 " />
<polygon points="0.000,358.814 159.850,358.814 159.850,198.964 0.000,198.964 " />
<polygon points="0.000,49.623 0.000,102.906 159.850,102.906 159.850,49.623 " />
<polygon points="0.000,49.623 0.000,102.906 159.850,102.906 159.850,49.623 " />
<polygon points="0.000,49.623 0.000,102.906 159.850,102.906 159.850,49.623 " />
<polygon points="0.000,49.623 0.000,102.906 159.850,102.906 159.850,49.623 " />
<polygon points="0.000,49.623 0.000,102.906 159.850,102.906 159.850,49.623 " />
<polygon points="445.444,365.121 498.728,365.121 498.728,205.271 445.444,205.271 " />
<polygon points="445.444,365.121 498.728,365.121 498.728,205.271 445.444,205.271 " />
<polygon points="445.444,365.121 498.728,365.121 498.728,205.271 445.444,205.271 " />
<polygon points="445.444,365.121 498.728,365.121 498.728,205.271 445.444,205.271 " />
<polygon points="0.000,358.814 159.850,358.814 159.850,198.964 0.000,198.964 " />
<polygon points="0.000,358.814 159.850,358.814 159.850,198.964 0.000,198.964 " />
<polygon points="0.000,358.814 159.850,358.814 159.850,198.964 0.000,198.964 " />
<polygon points="0.000,358.814 159.850,358.814 159.850,198.964 0.000,198.964 " />
<polygon points="278.534,5.398 299.130,5.398 299.046,2.699 278.450,2.699 " />
<polygon points="278.534,5.398 299.130,5.398 299.046,2.699 278.450,2.699 " />
<polygon points="9.679,492.606 16.597,492.606 16.597,490.531 9.679,490.531 " />
<polygon points="9.679,492.606 16.597,492.606 16.597,490.531 9.679,490.531 " />
<polygon points="9.679,492.606 16.597,492.606 16.597,490.531 9.679,490.531 " />
<polygon points="9.679,492.606 16.597,492.606 16.597,490.531 9.679,490.531 " />
<polygon points="9.679,492.606 16.597,492.606 16.597,490.531 9.679,490.531 " />
<polygon points="9.679,492.606 16.597,492.606 16.597,490.531 9.679,490.531 " />
<polygon points="9.679,492.606 16.597,492.606 16.597,490.531 9.679,490.531 " />
<polygon points="9.679,492.606 16.597,492.606 16.597,490.531 9.679,490.531 " />
<polygon points="278.534,5.398 299.130,5.398 299.046,2.699 278.450,2.699 " />
<polygon points="278.534,5.398 299.130,5.398 299.046,2.699 278.450,2.699 " />
<polygon points="0.000,49.623 0.000,102.906 159.850,102.906 159.850,49.623 " />
<polygon points="0.000,49.623 0.000,102.906 159.850,102.906 159.850,49.623 " />
<polygon points="0.000,49.623 0.000,102.906 159.850,102.906 159.850,49.623 " />
<polygon points="0.000,49.623 0.000,102.906 159.850,102.906 159.850,49.623 " />
<polygon points="0.000,49.623 0.000,102.906 159.850,102.906 159.850,49.623 " />
<polygon points="0.000,49.623 0.000,102.906 159.850,102.906 159.850,49.623 " />
<polygon points="9.679,492.606 16.597,492.606 16.597,490.531 9.679,490.531 " />
<polygon points="9.679,492.606 16.597,492.606 16.597,490.531 9.679,490.531 " />
<polygon points="9.679,492.606 16.597,492.606 16.597,490.531 9.679,490.531 " />
<polygon points="9.679,492.606 16.597,492.606 16.597,490.531 9.679,490.531 " />
<polygon points="124.515,15.012 145.267,15.012 145.267,8.101 124.515,8.101 " />
<polygon points="299.130,15.012 319.883,15.012 319.883,8.101 299.130,8.101 " />
<polygon points="319.700,358.814 319.700,198.964 159.850,198.964 159.850,358.814 " />
<polygon points="319.700,358.814 319.700,198.964 159.850,198.964 159.850,358.814 " />
<polygon points="320.277,18.146 319.700,39.114 479.550,39.114 480.127,18.146 " />
<polygon points="320.277,18.146 319.700,39.114 479.550,39.114 480.127,18.146 " />
<polygon points="320.277,18.146 319.700,39.114 479.550,39.114 480.127,18.146 " />
<polygon points="320.277,18.146 319.700,39.114 479.550,39.114 480.127,18.146 " />
<polygon points="319.700,358.814 319.700,198.964 159.850,198.964 159.850,358.814 " />
<polygon points="319.700,358.814 319.700,198.964 159.850,198.964 159.850,358.814 " />
<polygon points="319.700,358.814 319.700,198.964 159.850,198.964 159.850,358.814 " />
<polygon points="319.700,358.814 319.700,198.964 159.850,198.964 159.850,358.814 " />
<polygon points="320.277,18.146 319.700,39.114 479.550,39.114 480.127,18.146 " />
<polygon points="320.277,18.146 319.700,39.114 479.550,39.114 480.127,18.146 " />
<polygon points="320.277,18.146 319.700,39.114 479.550,39.114 480.127,18.146 " />
<polygon points="320.277,18.146 319.700,39.114 479.550,39.114 480.127,18.146 " />
<polygon points="319.700,358.814 319.700,198.964 159.850,198.964 159.850,358.814 " />
<polygon points="319.700,358.814 319.700,198.964 159.850,198.964 159.850,358.814 " />
<polygon points="319.700,358.814 319.700,198.964 159.850,198.964 159.850,358.814 " />
<polygon points="319.700,358.814 319.700,198.964 159.850,198.964 159.850,358.814 " />
<polygon points="320.277,18.146 319.700,39.114 479.550,39.114 480.127,18.146 " />
<polygon points="320.277,18.146 319.700,39.114 479.550,39.114 480.127,18.146 " />
<polygon points="320.277,18.146 319.700,39.114 479.550,39.114 480.127,18.146 " />
<polygon points="320.277,18.146 319.700,39.114 479.550,39.114 480.127,18.146 " />
<polygon points="319.700,358.814 319.700,198.964 159.850,198.964 159.850,358.814 " />
<polygon points="319.700,358.814 319.700,198.964 159.850,198.964 159.850,358.814 " />
<polygon points="319.700,358.814 319.700,198.964 159.850,198.964 159.850,358.814 " />
<polygon points="319.700,358.814 319.700,198.964 159.850,198.964 159.850,358.814 " />
<polygon points="320.277,18.146 319.700,39.114 479.550,39.114 480.127,18.146 " />
<polygon points="320.277,18.146 319.700,39.114 479.550,39.114 480.127,18.146 " />
<polygon points="320.277,18.146 319.700,39.114 479.550,39.114 480.127,18.146 " />
<polygon points="320.277,18.146 319.700,39.114 479.550,39.114 480.127,18.146 " />
<polygon points="319.700,358.814 319.700,198.964 159.850,198.964 159.850,358.814 " />
<polygon points="319.700,358.814 319.700,198.964 159.850,198.964 159.850,358.814 " />
<polygon points="147.930,511.508 168.682,511.508 168.682,504.583 147.930,504.583 " />
<polygon points="106.425,511.508 127.178,511.508 127.178,504.583 106.425,504.583 " />
<polygon points="9.679,492.606 16.597,492.606 16.597,490.531 9.679,490.531 " />
<polygon points="9.679,492.606 16.597,492.606 16.597,490.531 9.679,490.531 " />
<polygon points="9.679,492.606 16.597,492.606 16.597,490.531 9.679,490.531 " />
<polygon points="9.679,492.606 16.597,492.606 16.597,490.531 9.679,490.531 " />
<polygon points="0.000,49.623 0.000,102.906 159.850,102.906 159.850,49.623 " />
<polygon points="0.000,49.623 0.000,102.906 159.850,102.906 159.850,49.623 " />
<polygon points="47.668,11.772 26.990,9.050 26.916,11.772 " />
<polygon points="124.515,12.290 103.762,12.290 124.440,15.012 " />
<polygon points="124.440,12.290 124.515,9.567 103.762,9.567 " />
<polygon points="62.265,9.569 62.265,12.292 83.010,11.721 " />
<polygon points="75.440,499.325 54.762,496.603 54.687,499.325 " />
<polygon points="192.935,9.069 172.183,9.069 192.860,11.792 " />
<polygon points="10.159,504.364 10.085,507.067 30.691,507.067 30.765,504.364 " />
<polygon points="10.159,504.364 10.085,507.067 30.691,507.067 30.765,504.364 " />
<polygon points="10.159,504.364 10.085,507.067 30.691,507.067 30.765,504.364 " />
<polygon points="10.159,504.364 10.085,507.067 30.691,507.067 30.765,504.364 " />
<polygon points="10.159,504.364 10.085,507.067 30.691,507.067 30.765,504.364 " />
<polygon points="10.159,504.364 10.085,507.067 30.691,507.067 30.765,504.364 " />
<polygon points="10.159,504.364 10.085,507.067 30.691,507.067 30.765,504.364 " />
<polygon points="10.159,504.364 10.085,507.067 30.691,507.067 30.765,504.364 " />
<polygon points="10.159,504.364 10.085,507.067 30.691,507.067 30.765,504.364 " />
<polygon points="10.159,504.364 10.085,507.067 30.691,507.067 30.765,504.364 " />
<polygon points="10.159,504.364 10.085,507.067 30.691,507.067 30.765,504.364 " />
<polygon points="10.159,504.364 10.085,507.067 30.691,507.067 30.765,504.364 " />
<polygon points="10.159,504.364 10.085,507.067 30.691,507.067 30.765,504.364 " />
<polygon points="10.159,504.364 10.085,507.067 30.691,507.067 30.765,504.364 " />
<polygon points="10.159,504.364 10.085,507.067 30.691,507.067 30.765,504.364 " />
</g>
</svg>