<?xml version="1.0"?>
<!DOCTYPE svg PUBLIC "-//W3C//DTD SVG 1.1//EN" "http://www.w3.org/Graphics/SVG/1.1/DTD/svg11.dtd">
<svg width="1024px" height="1024px" viewBox="0 0 1024 1024" xmlns="http://www.w3.org/2000/svg" version="1.1">
<desc>UV-Map from Object: base03. Exported from Blender3D with UV Exportscript</desc>
<rect x="0" y="0" width="1024" height="1024" fill="none" stroke="blue" stroke-width="1px" />
<g style="fill:none; stroke:black; stroke-width:1px;">
<polygon points="798.135,224.790 870.977,149.595 777.970,78.459 725.106,165.802 " />
<polygon points="748.148,850.269 655.052,894.730 692.543,996.024 808.137,935.783 " />
<polygon points="851.339,281.717 934.732,223.478 870.977,149.595 798.135,224.790 " />
<polygon points="851.339,281.717 895.785,369.603 992.535,331.608 934.732,223.478 " />
<polygon points="895.785,369.603 917.978,458.391 1022.925,443.148 992.535,331.608 " />
<polygon points="901.543,642.244 866.623,719.200 958.601,770.765 1000.636,673.834 " />
<polygon points="866.623,719.200 814.020,789.078 894.060,861.105 958.601,770.765 " />
<polygon points="922.369,557.143 901.543,642.244 1000.636,673.834 1024.000,567.517 " />
<polygon points="814.020,789.078 748.148,850.269 808.137,935.783 894.060,861.105 " />
<polygon points="917.978,458.391 922.369,557.143 1024.000,567.517 1022.925,443.148 " />
<polygon points="561.362,109.811 573.370,8.216 445.727,9.507 459.972,114.500 " />
<polygon points="647.075,131.760 681.640,32.657 573.370,8.216 561.362,109.811 " />
<polygon points="725.106,165.802 777.970,78.459 681.640,32.657 647.075,131.760 " />
<polygon points="124.471,655.933 25.389,691.474 82.284,800.960 166.612,744.626 " />
<polygon points="455.129,921.771 441.335,1023.801 569.023,1024.000 557.648,919.163 " />
<polygon points="369.206,898.129 332.054,997.885 441.335,1023.801 455.129,921.771 " />
<polygon points="166.612,744.626 82.284,800.960 152.162,883.269 224.447,809.632 " />
<polygon points="290.763,861.011 233.910,948.670 332.054,997.885 369.206,898.129 " />
<polygon points="224.447,809.632 152.162,883.269 233.910,948.670 290.763,861.011 " />
<polygon points="557.648,919.163 569.023,1024.000 692.543,996.024 655.052,894.730 " />
<polygon points="124.471,655.933 102.460,567.705 0.000,579.668 25.389,691.474 " />
<polygon points="363.980,138.166 459.972,114.500 445.727,9.507 325.874,41.884 " />
<polygon points="122.381,386.108 154.689,310.249 67.153,259.056 23.954,352.632 " />
<polygon points="154.689,310.249 208.800,242.479 132.069,172.094 67.153,259.056 " />
<polygon points="102.460,567.705 100.231,469.818 0.000,458.131 0.000,579.668 " />
<polygon points="100.231,469.818 122.381,386.108 23.954,352.632 0.000,458.131 " />
<polygon points="208.800,242.479 273.379,182.811 215.107,100.256 132.069,172.094 " />
<polygon points="273.379,182.811 363.980,138.166 325.874,41.884 215.107,100.256 " />
<polygon points="468.824,404.665 510.249,516.663 497.064,397.657 " />
<polygon points="363.980,138.166 397.439,222.199 471.942,203.956 459.972,114.500 " />
<polygon points="397.439,222.199 433.172,313.283 484.591,300.652 471.942,203.956 " />
<polygon points="433.172,313.283 468.824,404.665 497.064,397.657 484.591,300.652 " />
<polygon points="397.191,558.099 510.249,516.663 390.699,531.911 " />
<polygon points="124.471,655.933 209.925,625.574 192.781,556.913 102.460,567.705 " />
<polygon points="209.925,625.574 303.132,592.148 291.285,544.606 192.781,556.913 " />
<polygon points="303.132,592.148 397.191,558.099 390.699,531.911 291.285,544.606 " />
<polygon points="525.966,634.205 554.278,627.112 510.249,516.663 " />
<polygon points="557.648,919.163 655.052,894.730 623.221,809.563 548.050,828.610 " />
<polygon points="548.050,828.610 623.221,809.563 588.785,718.188 537.131,731.259 " />
<polygon points="537.131,731.259 588.785,718.188 554.278,627.112 525.966,634.205 " />
<polygon points="495.914,635.594 525.966,634.205 510.249,516.663 " />
<polygon points="455.129,921.771 557.648,919.163 548.050,828.610 468.385,831.560 " />
<polygon points="468.385,831.560 548.050,828.610 537.131,731.259 482.306,733.707 " />
<polygon points="482.306,733.707 537.131,731.259 525.966,634.205 495.914,635.594 " />
<polygon points="470.527,628.963 495.914,635.594 510.249,516.663 " />
<polygon points="369.206,898.129 455.129,921.771 468.385,831.560 401.489,813.321 " />
<polygon points="401.489,813.321 468.385,831.560 482.306,733.707 436.117,721.343 " />
<polygon points="436.117,721.343 482.306,733.707 495.914,635.594 470.527,628.963 " />
<polygon points="447.376,618.294 470.527,628.963 510.249,516.663 " />
<polygon points="290.763,861.011 369.206,898.129 401.489,813.321 340.520,784.878 " />
<polygon points="340.520,784.878 401.489,813.321 436.117,721.343 393.990,701.871 " />
<polygon points="393.990,701.871 436.117,721.343 470.527,628.963 447.376,618.294 " />
<polygon points="427.657,603.312 447.376,618.294 510.249,516.663 " />
<polygon points="224.447,809.632 290.763,861.011 340.520,784.878 288.684,745.157 " />
<polygon points="288.684,745.157 340.520,784.878 393.990,701.871 358.112,674.561 " />
<polygon points="358.112,674.561 393.990,701.871 447.376,618.294 427.657,603.312 " />
<polygon points="410.098,584.346 427.657,603.312 510.249,516.663 " />
<polygon points="166.612,744.626 224.447,809.632 288.684,745.157 243.014,694.801 " />
<polygon points="243.014,694.801 288.684,745.157 358.112,674.561 326.270,639.973 " />
<polygon points="326.270,639.973 358.112,674.561 427.657,603.312 410.098,584.346 " />
<polygon points="397.191,558.099 410.098,584.346 510.249,516.663 " />
<polygon points="124.471,655.933 166.612,744.626 243.014,694.801 209.925,625.574 " />
<polygon points="209.925,625.574 243.014,694.801 326.270,639.973 303.132,592.148 " />
<polygon points="303.132,592.148 326.270,639.973 410.098,584.346 397.191,558.099 " />
<polygon points="389.899,502.696 510.249,516.663 396.584,477.777 " />
<polygon points="100.231,469.818 190.716,480.304 208.273,414.968 122.381,386.108 " />
<polygon points="190.716,480.304 289.769,491.542 301.997,446.301 208.273,414.968 " />
<polygon points="289.769,491.542 389.899,502.696 396.584,477.777 301.997,446.301 " />
<polygon points="390.699,531.911 510.249,516.663 389.899,502.696 " />
<polygon points="102.460,567.705 192.781,556.913 190.716,480.304 100.231,469.818 " />
<polygon points="192.781,556.913 291.285,544.606 289.769,491.542 190.716,480.304 " />
<polygon points="291.285,544.606 390.699,531.911 389.899,502.696 289.769,491.542 " />
<polygon points="396.584,477.777 510.249,516.663 406.154,455.180 " />
<polygon points="122.381,386.108 208.273,414.968 233.338,355.672 154.689,310.249 " />
<polygon points="208.273,414.968 301.997,446.301 319.324,405.223 233.338,355.672 " />
<polygon points="301.997,446.301 396.584,477.777 406.154,455.180 319.324,405.223 " />
<polygon points="406.154,455.180 510.249,516.663 422.414,435.154 " />
<polygon points="154.689,310.249 233.338,355.672 275.860,303.009 208.800,242.479 " />
<polygon points="233.338,355.672 319.324,405.223 348.881,368.855 275.860,303.009 " />
<polygon points="319.324,405.223 406.154,455.180 422.414,435.154 348.881,368.855 " />
<polygon points="422.414,435.154 510.249,516.663 441.707,417.478 " />
<polygon points="208.800,242.479 275.860,303.009 326.309,256.349 273.379,182.811 " />
<polygon points="275.860,303.009 348.881,368.855 383.854,336.605 326.309,256.349 " />
<polygon points="348.881,368.855 422.414,435.154 441.707,417.478 383.854,336.605 " />
<polygon points="441.707,417.478 510.249,516.663 468.824,404.665 " />
<polygon points="273.379,182.811 326.309,256.349 397.439,222.199 363.980,138.166 " />
<polygon points="326.309,256.349 383.854,336.605 433.172,313.283 397.439,222.199 " />
<polygon points="383.854,336.605 441.707,417.478 468.824,404.665 433.172,313.283 " />
<polygon points="527.016,396.191 497.064,397.657 510.249,516.663 " />
<polygon points="561.362,109.811 459.972,114.500 471.942,203.956 550.790,199.955 " />
<polygon points="550.790,199.955 471.942,203.956 484.591,300.652 539.041,297.823 " />
<polygon points="539.041,297.823 484.591,300.652 497.064,397.657 527.016,396.191 " />
<polygon points="552.370,402.710 527.016,396.191 510.249,516.663 " />
<polygon points="647.075,131.760 561.362,109.811 550.790,199.955 617.523,217.131 " />
<polygon points="617.523,217.131 550.790,199.955 539.041,297.823 585.144,309.726 " />
<polygon points="585.144,309.726 539.041,297.823 527.016,396.191 552.370,402.710 " />
<polygon points="575.425,412.860 552.370,402.710 510.249,516.663 " />
<polygon points="725.106,165.802 647.075,131.760 617.523,217.131 678.335,243.586 " />
<polygon points="678.335,243.586 617.523,217.131 585.144,309.726 627.148,328.045 " />
<polygon points="627.148,328.045 585.144,309.726 552.370,402.710 575.425,412.860 " />
<polygon points="554.278,627.112 581.487,614.297 510.249,516.663 " />
<polygon points="655.052,894.730 748.148,850.269 695.422,775.533 623.221,809.563 " />
<polygon points="623.221,809.563 695.422,775.533 638.458,694.916 588.785,718.188 " />
<polygon points="588.785,718.188 638.458,694.916 581.487,614.297 554.278,627.112 " />
<polygon points="600.829,596.555 510.249,516.663 581.487,614.297 " />
<polygon points="814.020,789.078 746.438,728.182 695.422,775.533 748.148,850.269 " />
<polygon points="746.438,728.182 673.610,662.425 638.458,694.916 695.422,775.533 " />
<polygon points="673.610,662.425 600.829,596.555 581.487,614.297 638.458,694.916 " />
<polygon points="616.311,576.281 510.249,516.663 600.829,596.555 " />
<polygon points="866.623,719.200 787.369,674.394 746.438,728.182 814.020,789.078 " />
<polygon points="787.369,674.394 701.853,625.482 673.610,662.425 746.438,728.182 " />
<polygon points="701.853,625.482 616.311,576.281 600.829,596.555 673.610,662.425 " />
<polygon points="626.736,553.786 510.249,516.663 616.311,576.281 " />
<polygon points="901.543,642.244 814.808,614.782 787.369,674.394 866.623,719.200 " />
<polygon points="814.808,614.782 720.863,584.469 701.853,625.482 787.369,674.394 " />
<polygon points="720.863,584.469 626.736,553.786 616.311,576.281 701.853,625.482 " />
<polygon points="633.375,528.773 510.249,516.663 626.736,553.786 " />
<polygon points="922.369,557.143 831.688,548.590 814.808,614.782 901.543,642.244 " />
<polygon points="831.688,548.590 732.848,538.874 720.863,584.469 814.808,614.782 " />
<polygon points="732.848,538.874 633.375,528.773 626.736,553.786 720.863,584.469 " />
<polygon points="632.464,499.499 510.249,516.663 633.375,528.773 " />
<polygon points="917.978,458.391 828.423,471.576 831.688,548.590 922.369,557.143 " />
<polygon points="828.423,471.576 730.844,485.638 732.848,538.874 831.688,548.590 " />
<polygon points="730.844,485.638 632.464,499.499 633.375,528.773 732.848,538.874 " />
<polygon points="625.902,473.291 510.249,516.663 632.464,499.499 " />
<polygon points="895.785,369.603 811.234,402.598 828.423,471.576 917.978,458.391 " />
<polygon points="811.234,402.598 718.961,437.971 730.844,485.638 828.423,471.576 " />
<polygon points="718.961,437.971 625.902,473.291 632.464,499.499 730.844,485.638 " />
<polygon points="612.876,447.086 510.249,516.663 625.902,473.291 " />
<polygon points="851.339,281.717 776.866,333.742 811.234,402.598 895.785,369.603 " />
<polygon points="776.866,333.742 695.305,390.304 718.961,437.971 811.234,402.598 " />
<polygon points="695.305,390.304 612.876,447.086 625.902,473.291 718.961,437.971 " />
<polygon points="596.958,430.380 575.425,412.860 510.249,516.663 " />
<polygon points="798.135,224.790 725.106,165.802 678.335,243.586 735.076,289.696 " />
<polygon points="735.076,289.696 678.335,243.586 627.148,328.045 666.309,359.953 " />
<polygon points="666.309,359.953 627.148,328.045 575.425,412.860 596.958,430.380 " />
<polygon points="612.876,447.086 596.958,430.380 510.249,516.663 " />
<polygon points="851.339,281.717 798.135,224.790 735.076,289.696 776.866,333.742 " />
<polygon points="776.866,333.742 735.076,289.696 666.309,359.953 695.305,390.304 " />
<polygon points="695.305,390.304 666.309,359.953 596.958,430.380 612.876,447.086 " />
</g>
</svg>